<svg width="397" height="398" xmlns="http://www.w3.org/2000/svg" xmlns:xlink="http://www.w3.org/1999/xlink" xml:space="preserve" overflow="hidden"><defs><clipPath id="clip0"><rect x="434" y="102" width="397" height="398"/></clipPath></defs><g clip-path="url(#clip0)" transform="translate(-434 -102)"><path d="M391.9 368.177 302.445 278.642C326.57 249.255 340.98 211.611 340.98 170.648 340.98 76.4986 264.64 0.15867 170.49 0.15867 76.3399 0.15867 0 76.4986 0 170.648 0 264.798 76.3399 341.138 170.49 341.138 211.615 341.138 249.339 326.566 278.807 302.28L368.261 391.735C378.704 401.287 388.5 395.135 391.9 391.735 398.7 385.016 398.7 374.896 391.9 368.177ZM33.2722 170.648C33.2722 94.8752 94.7166 33.4309 170.49 33.4309 246.263 33.4309 307.788 94.8752 307.788 170.648 307.788 246.422 246.344 307.866 170.571 307.866 94.7975 307.866 33.2722 246.422 33.2722 170.648Z" fill="#BFBFBF" transform="matrix(1 0 0 1.00252 434 102)"/></g></svg>